<?xml version="1.0" encoding="UTF-8"?>
<svg version="1.1" xmlns="http://www.w3.org/2000/svg" width="189" height="157">
<path d="M0 0 C62.37 0 124.74 0 189 0 C189 51.81 189 103.62 189 157 C126.63 157 64.26 157 0 157 C0 105.19 0 53.38 0 0 Z " fill="#FAD03A" transform="translate(0,0)"/>
<path d="M0 0 C62.37 0 124.74 0 189 0 C189 51.81 189 103.62 189 157 C126.63 157 64.26 157 0 157 C0 105.19 0 53.38 0 0 Z M74 11 C72.01302483 11.80381198 70.01394926 12.57888403 68 13.3125 C51.37956129 20.18462327 37.52098213 33.48674839 30.13867188 49.91699219 C23.71933007 65.72401805 22.06291586 84.74483819 28 101 C28.51046875 102.48306641 28.51046875 102.48306641 29.03125 103.99609375 C31.89256464 111.58437752 35.98235977 117.67116572 41 124 C41.78375 125.051875 42.5675 126.10375 43.375 127.1875 C55.17165653 139.82677486 71.50074067 148.16738643 88.86328125 149.23828125 C107.67795782 149.71406445 126.01851759 145.22826137 140.5 132.5625 C142.02573423 131.06748525 143.52709046 129.54708484 145 128 C145.71671875 127.2678125 146.4334375 126.535625 147.171875 125.78125 C161.90522112 110.05091053 165.76907759 91.38140831 165.140625 70.39501953 C164.80492821 64.6776835 163.59252953 59.14889172 161.00024414 54.02319336 C158.05252504 48.08805305 157.57084352 43.50215782 157.9375 36.9375 C158.36909061 28.47961243 157.70220759 21.45536944 151.9375 14.8125 C146.77934026 9.23729756 139.46236415 5.40288318 131.82215881 4.83937073 C130.64187355 4.8155558 130.64187355 4.8155558 129.43774414 4.79125977 C128.53903091 4.77196915 127.64031769 4.75267853 126.71437073 4.73280334 C122.58688897 4.67447175 118.459573 4.62572176 114.33178711 4.5949707 C112.16821238 4.57348198 110.00472239 4.53948915 107.84155273 4.49243164 C94.93345796 4.21459368 85.32113273 4.32691808 74 11 Z " fill="#121827" transform="translate(0,0)"/>
<path d="M0 0 C1.00722107 -0.00524185 2.01444214 -0.0104837 3.05218506 -0.0158844 C5.17687055 -0.02228653 7.30159156 -0.02099113 9.42626953 -0.01245117 C12.6481167 -0.0039688 15.8681726 -0.03268462 19.08984375 -0.06445312 C21.16406197 -0.06606625 23.2382833 -0.06548548 25.3125 -0.0625 C26.73650116 -0.07935097 26.73650116 -0.07935097 28.18927002 -0.09654236 C38.01956163 0.00396161 46.57536982 2.70030192 53.765625 9.56640625 C60.78190932 17.47627396 61.21784417 26.40522854 60.65283203 36.5234375 C59.85733514 43.10268449 55.31312995 48.30320068 50.421875 52.43359375 C47.84646805 54.22252358 45.25912669 55.98002556 42.62890625 57.6875 C39.39766965 60.24389427 38.60557588 62.19274628 38.0078125 66.23046875 C37.93820313 67.205 37.86859375 68.17953125 37.796875 69.18359375 C37.68472656 70.66085938 37.68472656 70.66085938 37.5703125 72.16796875 C37.49683594 73.28945312 37.49683594 73.28945312 37.421875 74.43359375 C36.101875 74.76359375 34.781875 75.09359375 33.421875 75.43359375 C32.81859375 74.51835938 32.2153125 73.603125 31.59375 72.66015625 C30.78693486 71.45931511 29.9796167 70.25881183 29.171875 69.05859375 C28.77613281 68.4553125 28.38039062 67.85203125 27.97265625 67.23046875 C25.73762374 63.93287981 24.17888447 61.79366821 20.421875 60.43359375 C17.19437498 60.14729797 17.19437498 60.14729797 13.6015625 60.1953125 C12.24738598 60.17987778 10.89321916 60.16357307 9.5390625 60.14648438 C7.42621275 60.13013785 5.31407873 60.12103563 3.20117188 60.12817383 C-7.24454804 60.14168546 -14.63252584 58.771546 -23.1640625 52.546875 C-29.95643099 45.71001501 -32.71437024 39.20618768 -33.203125 29.55859375 C-32.92066217 21.18493762 -30.34392283 14.26761256 -24.421875 8.23828125 C-16.59253275 1.83001825 -9.93080049 -0.03044944 0 0 Z " fill="#F74E82" transform="translate(97.578125,4.56640625)"/>
<path d="M0 0 C1.10279297 -0.02449219 2.20558594 -0.04898438 3.34179688 -0.07421875 C9.44448078 -0.09607911 13.34037428 0.40399157 18.57104492 3.47949219 C23.97280823 5.76506928 30.72925955 4.75295611 36.48828125 4.59960938 C43.41070315 4.6289062 47.15914528 5.53324732 52.13891602 10.45898438 C57.8880283 17.57218526 59.56932445 25.39298813 58.6875 34.375 C56.93069462 42.00546191 53.75179846 48.31950734 47.6875 53.375 C40.85718503 57.59527166 35.13117522 59.473671 27.12890625 59.55078125 C25.85595703 59.57462891 24.58300781 59.59847656 23.27148438 59.62304688 C21.25924575 59.6581512 19.24761511 59.68751589 17.23510742 59.70092773 C15.28281839 59.71645812 13.33079542 59.75832741 11.37890625 59.80078125 C10.21560791 59.81536377 9.05230957 59.82994629 7.85375977 59.8449707 C2.87180472 60.67894591 0.52196813 63.33227892 -2.55078125 67.171875 C-3.23527344 68.14640625 -3.91976562 69.1209375 -4.625 70.125 C-5.32238281 71.10984375 -6.01976563 72.0946875 -6.73828125 73.109375 C-7.25777344 73.85703125 -7.77726562 74.6046875 -8.3125 75.375 C-9.6325 75.045 -10.9525 74.715 -12.3125 74.375 C-12.33828125 73.56675781 -12.3640625 72.75851563 -12.390625 71.92578125 C-12.66927938 65.43685162 -12.66927938 65.43685162 -14.875 59.4375 C-16.94629986 57.68486165 -18.87424151 56.38441665 -21.1875 55 C-28.78372829 50.43943915 -33.1377103 43.95197962 -35.3125 35.375 C-36.46123271 26.39613003 -35.01015334 19.50961268 -29.734375 12.18359375 C-21.59702599 2.23183584 -12.40763934 0.01435239 0 0 Z " fill="#F7F8FB" transform="translate(66.3125,58.625)"/>
<path d="M0 0 C-0.51949219 0.38929688 -1.03898437 0.77859375 -1.57421875 1.1796875 C-8.30946047 6.58282042 -12.33136394 11.91398147 -13.4765625 20.625 C-13.87294995 30.97279868 -11.6870468 38.15335265 -4.8125 45.875 C3.71055261 53.42675435 13.39575065 53.57175709 24.3125 53.5625 C26.97613191 53.56727639 29.63712184 53.59303652 32.30078125 53.62890625 C34.05128784 53.6299939 34.05128784 53.6299939 35.8371582 53.63110352 C39.33043051 54.0385396 41.21548461 54.88325856 44 57 C45.32067044 60.65487865 44.9767773 63.99194271 44.5625 67.8125 C44.46066406 68.78832031 44.35882813 69.76414062 44.25390625 70.76953125 C44.12822266 71.87361328 44.12822266 71.87361328 44 73 C42.68 73.33 41.36 73.66 40 74 C39.39671875 73.08476563 38.7934375 72.16953125 38.171875 71.2265625 C37.36505986 70.02572136 36.5577417 68.82521808 35.75 67.625 C35.35425781 67.02171875 34.95851562 66.4184375 34.55078125 65.796875 C32.31574874 62.49928606 30.75700947 60.36007446 27 59 C23.77249998 58.71370422 23.77249998 58.71370422 20.1796875 58.76171875 C18.82551098 58.74628403 17.47134416 58.72997932 16.1171875 58.71289062 C14.00433775 58.6965441 11.89220373 58.68744188 9.77929688 58.69458008 C-0.66642304 58.70809171 -8.05440084 57.33795225 -16.5859375 51.11328125 C-23.37830599 44.27642126 -26.13624524 37.77259393 -26.625 28.125 C-26.34253717 19.75134387 -23.76579783 12.83401881 -17.84375 6.8046875 C-12.75530299 2.63982847 -6.75053702 -2.10862762 0 0 Z " fill="#DD3D71" transform="translate(91,6)"/>
<path d="M0 0 C1.11181641 0.00644531 2.22363281 0.01289062 3.36914062 0.01953125 C5.09487305 0.04466797 5.09487305 0.04466797 6.85546875 0.0703125 C8.02529297 0.07933594 9.19511719 0.08835938 10.40039062 0.09765625 C13.28145928 0.12117518 16.16210864 0.15404398 19.04296875 0.1953125 C19.04296875 0.5253125 19.04296875 0.8553125 19.04296875 1.1953125 C18.00398438 1.20949219 16.965 1.22367188 15.89453125 1.23828125 C5.64802418 1.5261183 -2.88602884 2.58662681 -10.33203125 10.3828125 C-15.10818899 16.65151954 -17.71272756 23.71205068 -17.33984375 31.6171875 C-16.14721029 39.64920875 -13.13267064 46.80689748 -6.95703125 52.1953125 C-4.68426703 53.79612904 -2.37035371 55.2962721 -0.015625 56.7734375 C2.55659538 58.55007548 4.29792848 60.61568775 6.04296875 63.1953125 C3.65928745 67.53701773 1.26176992 71.4017254 -1.95703125 75.1953125 C-3.27703125 74.8653125 -4.59703125 74.5353125 -5.95703125 74.1953125 C-5.9828125 73.38707031 -6.00859375 72.57882813 -6.03515625 71.74609375 C-6.31381063 65.25716412 -6.31381063 65.25716412 -8.51953125 59.2578125 C-10.59083111 57.50517415 -12.51877276 56.20472915 -14.83203125 54.8203125 C-22.42825954 50.25975165 -26.78224155 43.77229212 -28.95703125 35.1953125 C-30.10576396 26.21644253 -28.65468459 19.32992518 -23.37890625 12.00390625 C-17.35239946 4.63365133 -9.71076684 -0.09959761 0 0 Z " fill="#DEDDD8" transform="translate(59.95703125,58.8046875)"/>
<path d="M0 0 C3.5 0.25 3.5 0.25 5.5 2.25 C5.86487512 5.09602594 5.90199375 6.6364306 4.3125 9.0625 C1.85092224 10.67525784 0.38934264 10.6834014 -2.5 10.25 C-4.3125 9.0625 -4.3125 9.0625 -5.5 7.25 C-5.8125 4.6875 -5.8125 4.6875 -5.5 2.25 C-3.5 0.25 -3.5 0.25 0 0 Z " fill="#F8EFF5" transform="translate(131.5,29.75)"/>
<path d="M0 0 C3.5625 0.1875 3.5625 0.1875 5.5625 2.1875 C5.1875 5.8125 5.1875 5.8125 4.5625 9.1875 C-1.82457103 10.51311852 -1.82457103 10.51311852 -4.4375 9.125 C-5.92301155 6.24682137 -5.23438909 4.2422415 -4.4375 1.1875 C-3.4375 0.1875 -3.4375 0.1875 0 0 Z " fill="#F8EFF5" transform="translate(111.4375,29.8125)"/>
<path d="M0 0 C3 0.25 3 0.25 5 2.25 C5.25 5.25 5.25 5.25 5 8.25 C3 10.25 3 10.25 0 10.5 C-3 10.25 -3 10.25 -5 8.25 C-5.25 5.25 -5.25 5.25 -5 2.25 C-3 0.25 -3 0.25 0 0 Z " fill="#7D5BBC" transform="translate(98,83.75)"/>
<path d="M0 0 C3 0.25 3 0.25 5 2.25 C5.25 5.25 5.25 5.25 5 8.25 C3 10.25 3 10.25 0 10.5 C-3 10.25 -3 10.25 -5 8.25 C-5.25 5.25 -5.25 5.25 -5 2.25 C-3 0.25 -3 0.25 0 0 Z " fill="#7D5CBC" transform="translate(78,83.75)"/>
<path d="M0 0 C3 0.25 3 0.25 5 2.25 C5.25 5.25 5.25 5.25 5 8.25 C3 10.25 3 10.25 0 10.5 C-3 10.25 -3 10.25 -5 8.25 C-5.25 5.25 -5.25 5.25 -5 2.25 C-3 0.25 -3 0.25 0 0 Z " fill="#7E5CBC" transform="translate(58,83.75)"/>
<path d="M0 0 C3 0.25 3 0.25 5 2.25 C5.25 5.25 5.25 5.25 5 8.25 C3 10.25 3 10.25 0 10.5 C-3 10.25 -3 10.25 -5 8.25 C-5.25 5.25 -5.25 5.25 -5 2.25 C-3 0.25 -3 0.25 0 0 Z " fill="#F8F3F8" transform="translate(92,29.75)"/>
</svg>
